<mxfile host="app.diagrams.net" modified="2021-11-08T20:29:06.205Z" agent="5.0 (Windows NT 10.0; Win64; x64) AppleWebKit/537.36 (KHTML, like Gecko) Chrome/94.0.4606.81 Safari/537.36 OPR/80.0.4170.63" etag="WR6zFG918vRpNEJGsHGi" version="15.7.0" type="github">
  <diagram id="fswddAKS47gp_5byCrZ_" name="Page-1">
    <mxGraphModel dx="1456" dy="645" grid="1" gridSize="10" guides="1" tooltips="1" connect="1" arrows="1" fold="1" page="1" pageScale="1" pageWidth="827" pageHeight="1169" math="0" shadow="0">
      <root>
        <mxCell id="0" />
        <mxCell id="1" parent="0" />
        <mxCell id="siEeSFT4i3vVfXWGxD6--1" value="Character" style="swimlane;fontStyle=0;childLayout=stackLayout;horizontal=1;startSize=26;fillColor=none;horizontalStack=0;resizeParent=1;resizeParentMax=0;resizeLast=0;collapsible=1;marginBottom=0;" vertex="1" parent="1">
          <mxGeometry x="180" y="190" width="160" height="178" as="geometry" />
        </mxCell>
        <mxCell id="siEeSFT4i3vVfXWGxD6--2" value="- lifePoints: Int" style="text;strokeColor=none;fillColor=none;align=left;verticalAlign=top;spacingLeft=4;spacingRight=4;overflow=hidden;rotatable=0;points=[[0,0.5],[1,0.5]];portConstraint=eastwest;" vertex="1" parent="siEeSFT4i3vVfXWGxD6--1">
          <mxGeometry y="26" width="160" height="26" as="geometry" />
        </mxCell>
        <mxCell id="siEeSFT4i3vVfXWGxD6--48" value="&lt;span style=&quot;color: rgb(0 , 0 , 0) ; font-family: &amp;#34;helvetica&amp;#34; ; font-size: 12px ; font-style: normal ; font-weight: 400 ; letter-spacing: normal ; text-align: left ; text-indent: 0px ; text-transform: none ; word-spacing: 0px ; background-color: rgb(248 , 249 , 250) ; display: inline ; float: none&quot;&gt;- numOfHand: int&lt;/span&gt;" style="text;whiteSpace=wrap;html=1;" vertex="1" parent="siEeSFT4i3vVfXWGxD6--1">
          <mxGeometry y="52" width="160" height="30" as="geometry" />
        </mxCell>
        <mxCell id="siEeSFT4i3vVfXWGxD6--38" value="&lt;span style=&quot;color: rgb(0 , 0 , 0) ; font-family: &amp;#34;helvetica&amp;#34; ; font-size: 12px ; font-style: normal ; font-weight: 400 ; letter-spacing: normal ; text-align: left ; text-indent: 0px ; text-transform: none ; word-spacing: 0px ; background-color: rgb(248 , 249 , 250) ; display: inline ; float: none&quot;&gt;- status: Healthstatus&lt;/span&gt;" style="text;whiteSpace=wrap;html=1;" vertex="1" parent="siEeSFT4i3vVfXWGxD6--1">
          <mxGeometry y="82" width="160" height="48" as="geometry" />
        </mxCell>
        <mxCell id="siEeSFT4i3vVfXWGxD6--56" value="&lt;span style=&quot;color: rgb(0 , 0 , 0) ; font-family: &amp;#34;helvetica&amp;#34; ; font-size: 12px ; font-style: normal ; font-weight: 400 ; letter-spacing: normal ; text-align: left ; text-indent: 0px ; text-transform: none ; word-spacing: 0px ; background-color: rgb(248 , 249 , 250) ; display: inline ; float: none&quot;&gt;- weapons: List&amp;lt;Weapon&amp;gt;&lt;/span&gt;" style="text;whiteSpace=wrap;html=1;" vertex="1" parent="siEeSFT4i3vVfXWGxD6--1">
          <mxGeometry y="130" width="160" height="48" as="geometry" />
        </mxCell>
        <mxCell id="siEeSFT4i3vVfXWGxD6--5" value="&amp;lt;&amp;lt;abstract&amp;gt;&amp;gt;" style="text;html=1;align=center;verticalAlign=middle;resizable=0;points=[];autosize=1;strokeColor=none;fillColor=none;" vertex="1" parent="1">
          <mxGeometry x="215" y="160" width="90" height="20" as="geometry" />
        </mxCell>
        <mxCell id="siEeSFT4i3vVfXWGxD6--6" value="EvilMonster" style="swimlane;fontStyle=1;align=center;verticalAlign=top;childLayout=stackLayout;horizontal=1;startSize=26;horizontalStack=0;resizeParent=1;resizeParentMax=0;resizeLast=0;collapsible=1;marginBottom=0;" vertex="1" parent="1">
          <mxGeometry x="300" y="473" width="160" height="86" as="geometry" />
        </mxCell>
        <mxCell id="siEeSFT4i3vVfXWGxD6--7" value="+ field: type" style="text;strokeColor=none;fillColor=none;align=left;verticalAlign=top;spacingLeft=4;spacingRight=4;overflow=hidden;rotatable=0;points=[[0,0.5],[1,0.5]];portConstraint=eastwest;" vertex="1" parent="siEeSFT4i3vVfXWGxD6--6">
          <mxGeometry y="26" width="160" height="26" as="geometry" />
        </mxCell>
        <mxCell id="siEeSFT4i3vVfXWGxD6--8" value="" style="line;strokeWidth=1;fillColor=none;align=left;verticalAlign=middle;spacingTop=-1;spacingLeft=3;spacingRight=3;rotatable=0;labelPosition=right;points=[];portConstraint=eastwest;" vertex="1" parent="siEeSFT4i3vVfXWGxD6--6">
          <mxGeometry y="52" width="160" height="8" as="geometry" />
        </mxCell>
        <mxCell id="siEeSFT4i3vVfXWGxD6--9" value="+ method(type): type" style="text;strokeColor=none;fillColor=none;align=left;verticalAlign=top;spacingLeft=4;spacingRight=4;overflow=hidden;rotatable=0;points=[[0,0.5],[1,0.5]];portConstraint=eastwest;" vertex="1" parent="siEeSFT4i3vVfXWGxD6--6">
          <mxGeometry y="60" width="160" height="26" as="geometry" />
        </mxCell>
        <mxCell id="siEeSFT4i3vVfXWGxD6--10" value="BraveHeroes" style="swimlane;fontStyle=1;align=center;verticalAlign=top;childLayout=stackLayout;horizontal=1;startSize=26;horizontalStack=0;resizeParent=1;resizeParentMax=0;resizeLast=0;collapsible=1;marginBottom=0;" vertex="1" parent="1">
          <mxGeometry x="40" y="473" width="160" height="112" as="geometry" />
        </mxCell>
        <mxCell id="siEeSFT4i3vVfXWGxD6--11" value="+ field: type" style="text;strokeColor=none;fillColor=none;align=left;verticalAlign=top;spacingLeft=4;spacingRight=4;overflow=hidden;rotatable=0;points=[[0,0.5],[1,0.5]];portConstraint=eastwest;" vertex="1" parent="siEeSFT4i3vVfXWGxD6--10">
          <mxGeometry y="26" width="160" height="26" as="geometry" />
        </mxCell>
        <mxCell id="siEeSFT4i3vVfXWGxD6--47" value="-itemBag: Bag" style="text;strokeColor=none;fillColor=none;align=left;verticalAlign=top;spacingLeft=4;spacingRight=4;overflow=hidden;rotatable=0;points=[[0,0.5],[1,0.5]];portConstraint=eastwest;" vertex="1" parent="siEeSFT4i3vVfXWGxD6--10">
          <mxGeometry y="52" width="160" height="26" as="geometry" />
        </mxCell>
        <mxCell id="siEeSFT4i3vVfXWGxD6--12" value="" style="line;strokeWidth=1;fillColor=none;align=left;verticalAlign=middle;spacingTop=-1;spacingLeft=3;spacingRight=3;rotatable=0;labelPosition=right;points=[];portConstraint=eastwest;" vertex="1" parent="siEeSFT4i3vVfXWGxD6--10">
          <mxGeometry y="78" width="160" height="8" as="geometry" />
        </mxCell>
        <mxCell id="siEeSFT4i3vVfXWGxD6--13" value="+ method(type): type" style="text;strokeColor=none;fillColor=none;align=left;verticalAlign=top;spacingLeft=4;spacingRight=4;overflow=hidden;rotatable=0;points=[[0,0.5],[1,0.5]];portConstraint=eastwest;" vertex="1" parent="siEeSFT4i3vVfXWGxD6--10">
          <mxGeometry y="86" width="160" height="26" as="geometry" />
        </mxCell>
        <mxCell id="siEeSFT4i3vVfXWGxD6--14" value="Extends" style="endArrow=block;endSize=16;endFill=0;html=1;rounded=0;entryX=0.5;entryY=1;entryDx=0;entryDy=0;exitX=0.5;exitY=0;exitDx=0;exitDy=0;" edge="1" parent="1" source="siEeSFT4i3vVfXWGxD6--10" target="siEeSFT4i3vVfXWGxD6--56">
          <mxGeometry width="160" relative="1" as="geometry">
            <mxPoint x="90" y="463" as="sourcePoint" />
            <mxPoint x="230" y="423" as="targetPoint" />
          </mxGeometry>
        </mxCell>
        <mxCell id="siEeSFT4i3vVfXWGxD6--15" value="Extends" style="endArrow=block;endSize=16;endFill=0;html=1;rounded=0;" edge="1" parent="1" source="siEeSFT4i3vVfXWGxD6--6">
          <mxGeometry width="160" relative="1" as="geometry">
            <mxPoint x="260" y="483" as="sourcePoint" />
            <mxPoint x="260" y="390" as="targetPoint" />
          </mxGeometry>
        </mxCell>
        <mxCell id="siEeSFT4i3vVfXWGxD6--16" value="HealthStatus" style="swimlane;fontStyle=1;align=center;verticalAlign=top;childLayout=stackLayout;horizontal=1;startSize=26;horizontalStack=0;resizeParent=1;resizeParentMax=0;resizeLast=0;collapsible=1;marginBottom=0;" vertex="1" parent="1">
          <mxGeometry x="765" y="310" width="190" height="70" as="geometry" />
        </mxCell>
        <mxCell id="siEeSFT4i3vVfXWGxD6--18" value="" style="line;strokeWidth=1;fillColor=none;align=left;verticalAlign=middle;spacingTop=-1;spacingLeft=3;spacingRight=3;rotatable=0;labelPosition=right;points=[];portConstraint=eastwest;" vertex="1" parent="siEeSFT4i3vVfXWGxD6--16">
          <mxGeometry y="26" width="190" height="8" as="geometry" />
        </mxCell>
        <mxCell id="siEeSFT4i3vVfXWGxD6--19" value="+ changeStatus(c :Character):Â " style="text;strokeColor=none;fillColor=none;align=left;verticalAlign=top;spacingLeft=4;spacingRight=4;overflow=hidden;rotatable=0;points=[[0,0.5],[1,0.5]];portConstraint=eastwest;" vertex="1" parent="siEeSFT4i3vVfXWGxD6--16">
          <mxGeometry y="34" width="190" height="36" as="geometry" />
        </mxCell>
        <mxCell id="siEeSFT4i3vVfXWGxD6--20" value="&amp;lt;&amp;lt;abstract&amp;gt;&amp;gt;" style="text;html=1;align=center;verticalAlign=middle;resizable=0;points=[];autosize=1;strokeColor=none;fillColor=none;" vertex="1" parent="1">
          <mxGeometry x="815" y="280" width="90" height="20" as="geometry" />
        </mxCell>
        <mxCell id="siEeSFT4i3vVfXWGxD6--21" value="Dead" style="swimlane;fontStyle=1;align=center;verticalAlign=top;childLayout=stackLayout;horizontal=1;startSize=26;horizontalStack=0;resizeParent=1;resizeParentMax=0;resizeLast=0;collapsible=1;marginBottom=0;" vertex="1" parent="1">
          <mxGeometry x="605" y="480" width="160" height="34" as="geometry" />
        </mxCell>
        <mxCell id="siEeSFT4i3vVfXWGxD6--23" value="" style="line;strokeWidth=1;fillColor=none;align=left;verticalAlign=middle;spacingTop=-1;spacingLeft=3;spacingRight=3;rotatable=0;labelPosition=right;points=[];portConstraint=eastwest;" vertex="1" parent="siEeSFT4i3vVfXWGxD6--21">
          <mxGeometry y="26" width="160" height="8" as="geometry" />
        </mxCell>
        <mxCell id="siEeSFT4i3vVfXWGxD6--25" value="Damaged" style="swimlane;fontStyle=1;align=center;verticalAlign=top;childLayout=stackLayout;horizontal=1;startSize=26;horizontalStack=0;resizeParent=1;resizeParentMax=0;resizeLast=0;collapsible=1;marginBottom=0;" vertex="1" parent="1">
          <mxGeometry x="810" y="480" width="160" height="34" as="geometry" />
        </mxCell>
        <mxCell id="siEeSFT4i3vVfXWGxD6--27" value="" style="line;strokeWidth=1;fillColor=none;align=left;verticalAlign=middle;spacingTop=-1;spacingLeft=3;spacingRight=3;rotatable=0;labelPosition=right;points=[];portConstraint=eastwest;" vertex="1" parent="siEeSFT4i3vVfXWGxD6--25">
          <mxGeometry y="26" width="160" height="8" as="geometry" />
        </mxCell>
        <mxCell id="siEeSFT4i3vVfXWGxD6--29" value="Healthy" style="swimlane;fontStyle=1;align=center;verticalAlign=top;childLayout=stackLayout;horizontal=1;startSize=26;horizontalStack=0;resizeParent=1;resizeParentMax=0;resizeLast=0;collapsible=1;marginBottom=0;" vertex="1" parent="1">
          <mxGeometry x="1020" y="480" width="160" height="34" as="geometry" />
        </mxCell>
        <mxCell id="siEeSFT4i3vVfXWGxD6--31" value="" style="line;strokeWidth=1;fillColor=none;align=left;verticalAlign=middle;spacingTop=-1;spacingLeft=3;spacingRight=3;rotatable=0;labelPosition=right;points=[];portConstraint=eastwest;" vertex="1" parent="siEeSFT4i3vVfXWGxD6--29">
          <mxGeometry y="26" width="160" height="8" as="geometry" />
        </mxCell>
        <mxCell id="siEeSFT4i3vVfXWGxD6--33" value="Extends" style="endArrow=block;endSize=16;endFill=0;html=1;rounded=0;exitX=0.5;exitY=0;exitDx=0;exitDy=0;entryX=0.519;entryY=0.978;entryDx=0;entryDy=0;entryPerimeter=0;" edge="1" parent="1" source="siEeSFT4i3vVfXWGxD6--21" target="siEeSFT4i3vVfXWGxD6--19">
          <mxGeometry width="160" relative="1" as="geometry">
            <mxPoint x="681.44" y="488.81" as="sourcePoint" />
            <mxPoint x="815" y="380.00399999999996" as="targetPoint" />
          </mxGeometry>
        </mxCell>
        <mxCell id="siEeSFT4i3vVfXWGxD6--34" value="Extends" style="endArrow=block;endSize=16;endFill=0;html=1;rounded=0;exitX=0.5;exitY=0;exitDx=0;exitDy=0;entryX=0.536;entryY=1;entryDx=0;entryDy=0;entryPerimeter=0;" edge="1" parent="1" source="siEeSFT4i3vVfXWGxD6--25" target="siEeSFT4i3vVfXWGxD6--19">
          <mxGeometry width="160" relative="1" as="geometry">
            <mxPoint x="695" y="490" as="sourcePoint" />
            <mxPoint x="857.6500000000001" y="390.79200000000003" as="targetPoint" />
          </mxGeometry>
        </mxCell>
        <mxCell id="siEeSFT4i3vVfXWGxD6--35" value="Extends" style="endArrow=block;endSize=16;endFill=0;html=1;rounded=0;exitX=0.5;exitY=0;exitDx=0;exitDy=0;entryX=0.595;entryY=1.044;entryDx=0;entryDy=0;entryPerimeter=0;" edge="1" parent="1" source="siEeSFT4i3vVfXWGxD6--29" target="siEeSFT4i3vVfXWGxD6--19">
          <mxGeometry width="160" relative="1" as="geometry">
            <mxPoint x="900" y="490" as="sourcePoint" />
            <mxPoint x="873.6100000000001" y="389.20799999999997" as="targetPoint" />
          </mxGeometry>
        </mxCell>
        <mxCell id="siEeSFT4i3vVfXWGxD6--39" value="Bag" style="swimlane;fontStyle=1;align=center;verticalAlign=top;childLayout=stackLayout;horizontal=1;startSize=26;horizontalStack=0;resizeParent=1;resizeParentMax=0;resizeLast=0;collapsible=1;marginBottom=0;" vertex="1" parent="1">
          <mxGeometry x="200" y="850" width="160" height="60" as="geometry" />
        </mxCell>
        <mxCell id="siEeSFT4i3vVfXWGxD6--40" value="+ items: Array[6]" style="text;strokeColor=none;fillColor=none;align=left;verticalAlign=top;spacingLeft=4;spacingRight=4;overflow=hidden;rotatable=0;points=[[0,0.5],[1,0.5]];portConstraint=eastwest;" vertex="1" parent="siEeSFT4i3vVfXWGxD6--39">
          <mxGeometry y="26" width="160" height="26" as="geometry" />
        </mxCell>
        <mxCell id="siEeSFT4i3vVfXWGxD6--41" value="" style="line;strokeWidth=1;fillColor=none;align=left;verticalAlign=middle;spacingTop=-1;spacingLeft=3;spacingRight=3;rotatable=0;labelPosition=right;points=[];portConstraint=eastwest;" vertex="1" parent="siEeSFT4i3vVfXWGxD6--39">
          <mxGeometry y="52" width="160" height="8" as="geometry" />
        </mxCell>
        <mxCell id="siEeSFT4i3vVfXWGxD6--43" value="Item" style="swimlane;fontStyle=1;align=center;verticalAlign=top;childLayout=stackLayout;horizontal=1;startSize=26;horizontalStack=0;resizeParent=1;resizeParentMax=0;resizeLast=0;collapsible=1;marginBottom=0;" vertex="1" parent="1">
          <mxGeometry x="440" y="680" width="160" height="86" as="geometry" />
        </mxCell>
        <mxCell id="siEeSFT4i3vVfXWGxD6--44" value="+ field: type" style="text;strokeColor=none;fillColor=none;align=left;verticalAlign=top;spacingLeft=4;spacingRight=4;overflow=hidden;rotatable=0;points=[[0,0.5],[1,0.5]];portConstraint=eastwest;" vertex="1" parent="siEeSFT4i3vVfXWGxD6--43">
          <mxGeometry y="26" width="160" height="26" as="geometry" />
        </mxCell>
        <mxCell id="siEeSFT4i3vVfXWGxD6--45" value="" style="line;strokeWidth=1;fillColor=none;align=left;verticalAlign=middle;spacingTop=-1;spacingLeft=3;spacingRight=3;rotatable=0;labelPosition=right;points=[];portConstraint=eastwest;" vertex="1" parent="siEeSFT4i3vVfXWGxD6--43">
          <mxGeometry y="52" width="160" height="8" as="geometry" />
        </mxCell>
        <mxCell id="siEeSFT4i3vVfXWGxD6--46" value="+ method(type): type" style="text;strokeColor=none;fillColor=none;align=left;verticalAlign=top;spacingLeft=4;spacingRight=4;overflow=hidden;rotatable=0;points=[[0,0.5],[1,0.5]];portConstraint=eastwest;" vertex="1" parent="siEeSFT4i3vVfXWGxD6--43">
          <mxGeometry y="60" width="160" height="26" as="geometry" />
        </mxCell>
        <mxCell id="siEeSFT4i3vVfXWGxD6--49" value="Weapon" style="swimlane;fontStyle=1;align=center;verticalAlign=top;childLayout=stackLayout;horizontal=1;startSize=26;horizontalStack=0;resizeParent=1;resizeParentMax=0;resizeLast=0;collapsible=1;marginBottom=0;" vertex="1" parent="1">
          <mxGeometry x="440" y="850" width="160" height="86" as="geometry" />
        </mxCell>
        <mxCell id="siEeSFT4i3vVfXWGxD6--50" value="+ field: type" style="text;strokeColor=none;fillColor=none;align=left;verticalAlign=top;spacingLeft=4;spacingRight=4;overflow=hidden;rotatable=0;points=[[0,0.5],[1,0.5]];portConstraint=eastwest;" vertex="1" parent="siEeSFT4i3vVfXWGxD6--49">
          <mxGeometry y="26" width="160" height="26" as="geometry" />
        </mxCell>
        <mxCell id="siEeSFT4i3vVfXWGxD6--51" value="" style="line;strokeWidth=1;fillColor=none;align=left;verticalAlign=middle;spacingTop=-1;spacingLeft=3;spacingRight=3;rotatable=0;labelPosition=right;points=[];portConstraint=eastwest;" vertex="1" parent="siEeSFT4i3vVfXWGxD6--49">
          <mxGeometry y="52" width="160" height="8" as="geometry" />
        </mxCell>
        <mxCell id="siEeSFT4i3vVfXWGxD6--52" value="+ method(type): type" style="text;strokeColor=none;fillColor=none;align=left;verticalAlign=top;spacingLeft=4;spacingRight=4;overflow=hidden;rotatable=0;points=[[0,0.5],[1,0.5]];portConstraint=eastwest;" vertex="1" parent="siEeSFT4i3vVfXWGxD6--49">
          <mxGeometry y="60" width="160" height="26" as="geometry" />
        </mxCell>
        <mxCell id="siEeSFT4i3vVfXWGxD6--53" value="&amp;lt;&amp;lt;abstract&amp;gt;&amp;gt;" style="text;html=1;align=center;verticalAlign=middle;resizable=0;points=[];autosize=1;strokeColor=none;fillColor=none;" vertex="1" parent="1">
          <mxGeometry x="465" y="640" width="90" height="20" as="geometry" />
        </mxCell>
        <mxCell id="siEeSFT4i3vVfXWGxD6--55" value="Extends" style="endArrow=block;endSize=16;endFill=0;html=1;rounded=0;entryX=0.456;entryY=1.066;entryDx=0;entryDy=0;entryPerimeter=0;exitX=0.5;exitY=0;exitDx=0;exitDy=0;" edge="1" parent="1" source="siEeSFT4i3vVfXWGxD6--49" target="siEeSFT4i3vVfXWGxD6--46">
          <mxGeometry width="160" relative="1" as="geometry">
            <mxPoint x="140" y="850" as="sourcePoint" />
            <mxPoint x="300" y="850" as="targetPoint" />
          </mxGeometry>
        </mxCell>
        <mxCell id="siEeSFT4i3vVfXWGxD6--58" value="Extends" style="endArrow=block;endSize=16;endFill=0;html=1;rounded=0;entryX=0.421;entryY=1.029;entryDx=0;entryDy=0;entryPerimeter=0;exitX=0.5;exitY=0;exitDx=0;exitDy=0;" edge="1" parent="1" source="siEeSFT4i3vVfXWGxD6--39" target="siEeSFT4i3vVfXWGxD6--46">
          <mxGeometry width="160" relative="1" as="geometry">
            <mxPoint x="367.03999999999996" y="848.28" as="sourcePoint" />
            <mxPoint x="360" y="765.9960000000001" as="targetPoint" />
          </mxGeometry>
        </mxCell>
      </root>
    </mxGraphModel>
  </diagram>
</mxfile>
